<svg width="759" height="468" viewBox="0 0 759 468" fill="none" xmlns="http://www.w3.org/2000/svg">
<circle cx="643" cy="116" r="116" fill="#0F0F0F"/>
<rect x="273" y="386.753" width="309.144" height="101" rx="50.5" transform="rotate(-37.6304 273 386.753)" fill="#0F0F0F"/>
<rect x="273" y="412.53" width="211.059" height="101" rx="50.5" transform="rotate(-57.2398 273 412.53)" fill="#0F0F0F"/>
<rect x="341.729" y="271.933" width="202.942" height="101" rx="50.5" transform="rotate(-18.9586 341.729 271.933)" fill="#0F0F0F"/>
<rect x="160.375" y="81.4541" width="407.728" height="101" rx="50.5" transform="rotate(52.6918 160.375 81.4541)" fill="#0F0F0F"/>
<rect x="195.604" y="160.538" width="209.562" height="100.106" rx="50.0529" transform="rotate(33.0823 195.604 160.538)" fill="#0F0F0F"/>
<rect x="334.56" y="229.24" width="202.942" height="101" rx="50.5" transform="rotate(71.3636 334.56 229.24)" fill="#0F0F0F"/>
<rect x="281.405" y="126.83" width="246.04" height="28.8527" transform="rotate(149.652 281.405 126.83)" fill="#0F0F0F"/>
<rect x="273.549" y="169.444" width="101.399" height="28.8527" transform="rotate(-120.707 273.549 169.444)" fill="#0F0F0F"/>
<rect x="51.7791" y="303.594" width="101.399" height="28.8527" transform="rotate(-120.707 51.7791 303.594)" fill="#0F0F0F"/>
<rect x="309.081" y="148.916" width="101.399" height="28.8527" transform="rotate(-120.707 309.081 148.916)" fill="#0F0F0F"/>
<rect x="87.3116" y="283.065" width="101.399" height="28.8527" transform="rotate(-120.707 87.3116 283.065)" fill="#0F0F0F"/>
</svg>
